<svg xmlns="http://www.w3.org/2000/svg" width="319" height="123.735" viewBox="0 0 319 123.735">
  <g id="Group_1582" data-name="Group 1582" transform="translate(-3069 -3638)">
    <g id="Group_1580" data-name="Group 1580" transform="translate(3197 3638)">
      <path id="Path_1748" data-name="Path 1748" d="M11.84,42.92,31.45,62.6,41.44,52.54V42.92ZM0,52.54,10.286,62.826H29.674L0,33.152ZM0,20.35,21.016,41.367H40.4L0,1.11ZM1.11,0,21.016,19.906H30.71v-9.62L20.424,0Z" fill="#fff"/>
      <path id="Path_1749" data-name="Path 1749" d="M21.459,42.92v9.62L31.449,62.6,51.059,42.92ZM33.225,62.826H52.613L62.9,52.54V33.152ZM22.5,41.367H41.884L62.9,20.35V1.11ZM42.475,0,32.189,10.286v9.62h9.695L61.789,0Z" fill="#fff"/>
    </g>
    <g id="Group_1581" data-name="Group 1581" transform="translate(3069 3723.24)">
      <path id="Path_1737" data-name="Path 1737" d="M7.285,24.583H24.112v5.545l-5.64,5.641Zm-6.2,5.545V19.036L17.909,35.863H6.817Zm0-17.626V1.411l22.7,22.7H12.691Zm.33-11.422H12.5l5.734,5.734v5.546H12.691ZM0,0V12.926l.235.282L10.576,23.5H7.05l-5.593-5.64L0,16.451v14.1l.235.282L6.11,36.71l.282.235H18.8l.282-.235,5.875-5.876.235-.282V24.019l-.235-.282L14.618,13.444h4.7V6.393l-.235-.283L13.208.236,12.926,0Z" fill="#fff"/>
      <path id="Path_1738" data-name="Path 1738" d="M25.681,25.428V14.336L36.96,25.616V36.71ZM37.432,14.336,48.618,25.522,37.432,36.71Zm-11.751-.658V2.586L36.96,13.866V24.959Zm11.845.094L48.712,2.586V24.959ZM49.793,0,37.2,12.6,24.6,0V25.9l12.6,12.6,12.6-12.6Z" transform="translate(4.306)" fill="#fff"/>
      <path id="Path_1739" data-name="Path 1739" d="M56.154,6.956H67.435V24.112H56.154Zm11.752,0h5.405V18.378l-5.405,5.405ZM50.28,30.128V1.411l5.405,5.4v28.72Zm.329-29.047H67.577l5.405,5.405H56.016ZM49.2,0V30.552l.235.282,5.875,5.876,1.456,1.41V25.194H68l.283-.235,5.874-5.875.235-.283V6.393l-.235-.283L68.283.236,68,0Z" transform="translate(8.613)" fill="#fff"/>
      <path id="Path_1740" data-name="Path 1740" d="M80.754,30.457H92.176l5.405,5.405H80.754ZM86.63,15.794h5.546L97.581,21.2H86.63ZM80.754,6.956H86.16v23.03H80.754ZM74.879,30.128V1.411l5.406,5.4v28.72Zm.33-29.047H92.176l5.405,5.405H80.615ZM73.8,0V30.6l6.11,6.11.283.235h20.022l-1.457-1.41L92.882,29.66l-.236-.283H87.241v-7.1h12.926l-1.41-1.457-6.11-6.11H87.241V7.567h12.973L92.646,0Z" transform="translate(12.919)" fill="#fff"/>
      <path id="Path_1741" data-name="Path 1741" d="M106.723,18.707h11.093l5.734,5.734V35.535Zm-6.2,11.422V13.162l5.405,5.4V35.535Zm0-17.626V1.411l16.827,16.826H106.253Zm.329-11.422h16.968l5.734,5.734V12.5l-5.64,5.64ZM99.438,0V30.552l.235.282,5.875,5.876L107,38.12V20.494l4.419,4.465L123.174,36.71l1.457,1.41v-14.1l-.235-.282-5.311-5.265,5.311-5.264.235-.282V6.393L124.4,6.11,118.521.236,118.238,0Z" transform="translate(17.407)" fill="#fff"/>
      <path id="Path_1742" data-name="Path 1742" d="M133.323,24.583H150.15v5.545l-5.64,5.641Zm-6.2,5.545V19.036l16.827,16.827H132.853Zm0-17.626V1.411l22.7,22.7H138.729Zm.329-11.422h11.093l5.734,5.734v5.546h-5.546ZM126.038,0V12.926l.235.282L136.614,23.5h-3.526l-5.592-5.64-1.457-1.41v14.1l.235.282,5.875,5.876.282.235h12.409l.282-.235L151,30.834l.235-.282V24.019L151,23.737,140.656,13.444h4.7V6.393l-.234-.283L139.246.236,138.964,0Z" transform="translate(22.064)" fill="#fff"/>
      <path id="Path_1743" data-name="Path 1743" d="M155.593,24.253V7.285l11.281,11.281V35.535Zm.33-17.3h10.95V17.909Zm-6.2-5.875h11.422l5.405,5.405H149.719Zm12.08,0h5.216l5.406,5.405H167.2ZM148.637,0V7.567h5.875v17.11l.235.282L166.5,36.71l1.456,1.41V7.567h7.052L173.6,6.11,167.72.236,167.438,0Z" transform="translate(26.02)" fill="#fff"/>
      <path id="Path_1744" data-name="Path 1744" d="M181.523,18.707h11.091l5.734,5.734V35.535Zm-6.2,11.422V13.162l5.405,5.4V35.535Zm0-17.626V1.411l16.827,16.826H181.053Zm.329-11.422h16.967l5.734,5.734V12.5l-5.64,5.64ZM174.236,0V30.552l.236.282,5.874,5.876,1.457,1.41V20.494l4.419,4.465L197.973,36.71l1.457,1.41v-14.1l-.235-.282-5.312-5.265,5.312-5.264.235-.282V6.393L199.2,6.11,193.319.236,193.037,0Z" transform="translate(30.501)" fill="#fff"/>
      <path id="Path_1745" data-name="Path 1745" d="M199.917,25.428V14.336L211.2,25.616V36.71Zm11.752-11.093,11.185,11.187L211.669,36.71Zm-11.752-.658V2.586L211.2,13.866V24.959Zm11.846.094L222.948,2.586V24.959ZM224.03,0l-12.6,12.6L198.836,0V25.9l12.6,12.6,12.6-12.6Z" transform="translate(34.808)" fill="#fff"/>
      <path id="Path_1746" data-name="Path 1746" d="M230.392,19.036l16.827,16.827H230.392Zm0-.658V6.956h11.281v22.7Zm-5.875,11.751V1.411l5.406,5.4v28.72Zm.33-29.047h16.967l5.405,5.405H230.253ZM223.436,0V30.6l6.11,6.11.283.235h19.976l-7.052-7.052V7.567h7.052L248.4,6.11,242.285,0Z" transform="translate(39.114)" fill="#fff"/>
      <path id="Path_1747" data-name="Path 1747" d="M255.991,24.253V7.285l11.282,11.281V35.535Zm.329-17.3h10.953V17.909Zm-6.2-5.875h11.423l5.405,5.405H250.116Zm12.081,0h5.216l5.405,5.405H267.6ZM249.035,0V7.567h5.875v17.11l.235.282L266.9,36.71l1.457,1.41V7.567H275.4l-1.41-1.457L268.119.236,267.836,0Z" transform="translate(43.596)" fill="#fff"/>
    </g>
  </g>
</svg>
