<?xml version="1.0" encoding="utf-8"?>
<!-- Generator: Adobe Illustrator 23.0.4, SVG Export Plug-In . SVG Version: 6.00 Build 0)  -->
<svg version="1.1" id="Layer_1" xmlns="http://www.w3.org/2000/svg" xmlns:xlink="http://www.w3.org/1999/xlink" x="0px" y="0px"
	 viewBox="0 0 194.3 153.1" style="enable-background:new 0 0 194.3 153.1;" xml:space="preserve">
<style type="text/css">
	.st0{fill:url(#SVGID_1_);}
	.st1{fill:url(#SVGID_2_);}
	.st2{fill:url(#SVGID_3_);}
	.st3{fill:url(#SVGID_4_);}
	.st4{display:none;}
	.st5{display:inline;fill:url(#SVGID_5_);}
	.st6{display:inline;fill:url(#SVGID_6_);}
	.st7{display:inline;fill:url(#SVGID_7_);}
	.st8{display:inline;fill:url(#SVGID_8_);}
	.st9{fill:url(#SVGID_9_);}
</style>
<g>
	<path d="M18.3,90.2h5.2l-8.9,25.4H9.4L0.5,90.2h5.2l4.3,13.6l1.9,6.9H12l1.9-6.9L18.3,90.2z"/>
	<path d="M31.3,115.6h-4.9V90.2h4.9V115.6z"/>
	<path d="M46.2,115.6h-4.9V94.3L34,94.4v-4.2h19.4v4.2l-7.3-0.1V115.6z"/>
	<path d="M68.2,109.9H59l-1.9,5.7H52l9.2-25.4h5l9.2,25.4h-5.1L68.2,109.9z M60.4,105.8h6.3l-1.2-3.8l-1.9-6.5h-0.1l-1.9,6.5
		L60.4,105.8z"/>
	<path d="M78.1,90.2l4.9,0v21.2h11.2v4.2H78.1V90.2z"/>
	<path d="M116.7,111.7l-4-9.3c-0.5-1.2-0.9-2.3-1.2-3.3c-0.3-1-0.6-2.1-0.9-3.2h-0.1c0.1,0.6,0.2,1.2,0.3,1.8c0.1,0.7,0.2,1.3,0.2,2
		c0.1,0.7,0.1,1.3,0.2,1.9c0,0.6,0.1,1.1,0.1,1.6v12.4h-4.7V90.2h5.5l5.1,11.7c0.5,1.1,0.9,2.2,1.3,3.3c0.3,1.1,0.6,2.1,0.7,3h0.1
		c0.1-0.9,0.4-1.9,0.7-3c0.3-1.1,0.8-2.2,1.3-3.3l5.1-11.7h5.5v25.4h-4.7v-12.4c0-0.5,0-1,0.1-1.6c0-0.6,0.1-1.2,0.2-1.9
		c0.1-0.7,0.1-1.3,0.2-2c0.1-0.7,0.2-1.3,0.3-1.8h-0.1c-0.3,1.1-0.6,2.2-0.9,3.2s-0.7,2.1-1.2,3.3l-4,9.3H116.7z"/>
	<path d="M141.8,115.6h-4.9V90.2h4.9V115.6z"/>
	<path d="M162.6,90.2h4.9v25.4h-4.9l-8.7-14.4c-0.5-0.9-1-1.7-1.4-2.6c-0.4-0.9-0.8-1.7-1.1-2.7h-0.1c0.2,1.1,0.4,2.1,0.5,3.1
		c0.1,1,0.2,1.9,0.2,2.7v13.9h-4.9V90.2h5.3l8.3,14.4c0.5,0.9,1,1.7,1.4,2.6c0.4,0.9,0.8,1.7,1.1,2.7h0.1c-0.2-1.1-0.4-2.1-0.5-3.1
		c-0.1-1-0.2-1.9-0.2-2.7V90.2z"/>
	<path d="M193.7,102.8c0,4.2-1.1,7.4-3.3,9.6c-2.2,2.2-5.4,3.2-9.7,3.2h-7.9V90.2h7.9c4.2,0,7.4,1.1,9.7,3.2
		C192.6,95.5,193.7,98.7,193.7,102.8z M188.8,102.8c0-1.5-0.2-2.8-0.6-3.9s-0.9-1.9-1.6-2.6s-1.5-1.2-2.5-1.5
		c-1-0.3-2.1-0.5-3.4-0.5h-3v17h3c1.3,0,2.4-0.2,3.4-0.5c1-0.3,1.9-0.8,2.5-1.5c0.7-0.7,1.2-1.6,1.6-2.7
		C188.6,105.6,188.8,104.3,188.8,102.8z"/>
	<path d="M67.8,143.5l-3.8-8.4c-0.2-0.5-0.5-1.1-0.7-1.6c-0.2-0.5-0.4-1.1-0.7-1.8l-0.2,0c0.1,0.8,0.1,1.6,0.1,2.3
		c0,0.7,0,1.3,0,1.7v10.6h-1.7v-17.3H63l4.2,9.3c0.1,0.3,0.3,0.6,0.4,1c0.2,0.4,0.3,0.7,0.4,1.1c0.1,0.4,0.3,0.7,0.4,1
		c0.1,0.3,0.2,0.6,0.3,0.8c0.1-0.2,0.2-0.4,0.3-0.8c0.1-0.3,0.3-0.7,0.4-1c0.2-0.4,0.3-0.7,0.5-1.1s0.3-0.7,0.4-1l4.2-9.3h2.1v17.3
		H75v-10.6c0-0.4,0-1,0-1.7c0-0.7,0.1-1.5,0.2-2.3l-0.2-0.1c-0.2,0.7-0.5,1.3-0.7,1.8c-0.2,0.5-0.5,1-0.7,1.6l-3.8,8.4H67.8z"/>
	<path d="M82.3,129.1h10.4v1.6H84v6h8.1v1.6H84v6.5h8.7v1.6H82.3V129.1z"/>
	<path d="M110.8,137.7c0,2.8-0.7,5-2.2,6.5c-1.4,1.5-3.6,2.2-6.4,2.2h-4.8v-17.3h4.8c2.8,0,4.9,0.7,6.4,2.2
		C110.1,132.7,110.8,134.8,110.8,137.7z M109,137.7c0-1.2-0.1-2.3-0.4-3.2c-0.3-0.9-0.7-1.6-1.3-2.2c-0.6-0.6-1.3-1-2.1-1.2
		c-0.8-0.3-1.8-0.4-2.9-0.4h-3v14h3c2.2,0,3.9-0.6,5-1.7C108.5,142,109,140.2,109,137.7z"/>
	<path d="M117.3,146.3h-1.8v-17.3h1.8V146.3z"/>
	<path d="M132.6,141.5H125l-1.7,4.8h-1.8l6.4-17.3h1.8c1.1,2.9,2.1,5.8,3.2,8.6c1.1,2.9,2.1,5.7,3.2,8.6h-1.8L132.6,141.5z
		 M125.6,140h6.4l-2-5.3c-0.2-0.6-0.4-1.2-0.6-1.9s-0.4-1.3-0.6-1.9c-0.2,0.6-0.4,1.2-0.7,1.9c-0.2,0.7-0.4,1.3-0.6,1.9L125.6,140z"
		/>
</g>
<g>
	<linearGradient id="SVGID_1_" gradientUnits="userSpaceOnUse" x1="70.4001" y1="53.9433" x2="104.4951" y2="53.9433">
		<stop  offset="0" style="stop-color:#2FB45C"/>
		<stop  offset="1" style="stop-color:#2E4FA2"/>
	</linearGradient>
	<polygon class="st0" points="101.8,49.1 104.5,44.2 81.2,44.2 70.4,63.7 75.3,63.7 84.4,49.1 	"/>
	<linearGradient id="SVGID_2_" gradientUnits="userSpaceOnUse" x1="58.846" y1="40.3756" x2="111.841" y2="40.3756">
		<stop  offset="0" style="stop-color:#2FB45C"/>
		<stop  offset="1" style="stop-color:#2E4FA2"/>
	</linearGradient>
	<polygon class="st1" points="85.6,64.7 68.6,64.7 80.6,43.1 106.3,43.1 102.6,49.7 102.6,50.1 102.4,50.1 97.2,59.3 99.7,63.2 
		111.8,43.7 100.7,24.3 97.9,28.8 103.6,38.3 83.6,38.3 99.4,10.9 93.4,10.9 58.8,69.8 88.7,69.8 	"/>
	<linearGradient id="SVGID_3_" gradientUnits="userSpaceOnUse" x1="85.6825" y1="59.9928" x2="120.1576" y2="59.9928">
		<stop  offset="0" style="stop-color:#2FB45C"/>
		<stop  offset="1" style="stop-color:#2E4FA2"/>
	</linearGradient>
	<polygon class="st2" points="96.2,59.6 95.9,59.4 96,59.3 90.3,50.1 85.7,50.1 97.2,69.9 120.2,69.9 117.3,64.7 99.4,64.7 	"/>
	<linearGradient id="SVGID_4_" gradientUnits="userSpaceOnUse" x1="58.8504" y1="63.7015" x2="131.4103" y2="63.7015">
		<stop  offset="0" style="stop-color:#2FB45C"/>
		<stop  offset="1" style="stop-color:#2E4FA2"/>
	</linearGradient>
	<polygon class="st3" points="113.6,55.7 122,70.9 96.6,70.9 84.7,50.6 81.6,55.7 90.6,70.9 58.9,70.9 62.3,76.8 131.4,76.8 
		116.7,50.7 	"/>
	<g class="st4">
		<linearGradient id="SVGID_5_" gradientUnits="userSpaceOnUse" x1="108.5917" y1="60.2" x2="116.7453" y2="60.2">
			<stop  offset="0" style="stop-color:#2FB45C"/>
			<stop  offset="1" style="stop-color:#2E4FA2"/>
		</linearGradient>
		<polygon class="st5" points="108.6,63.7 116.7,63.7 112.9,56.7 		"/>
		<linearGradient id="SVGID_6_" gradientUnits="userSpaceOnUse" x1="92.5705" y1="33.517" x2="101.6813" y2="33.517">
			<stop  offset="0" style="stop-color:#2FB45C"/>
			<stop  offset="1" style="stop-color:#2E4FA2"/>
		</linearGradient>
		<polygon class="st6" points="92.6,37.2 101.7,37.2 97.2,29.8 		"/>
		<linearGradient id="SVGID_7_" gradientUnits="userSpaceOnUse" x1="76.5854" y1="60.2061" x2="85.0053" y2="60.2061">
			<stop  offset="0" style="stop-color:#2FB45C"/>
			<stop  offset="1" style="stop-color:#2E4FA2"/>
		</linearGradient>
		<polygon class="st7" points="80.9,56.7 76.6,63.7 85,63.7 		"/>
		<linearGradient id="SVGID_8_" gradientUnits="userSpaceOnUse" x1="91.5804" y1="54.1751" x2="101.1583" y2="54.1751">
			<stop  offset="0" style="stop-color:#2FB45C"/>
			<stop  offset="1" style="stop-color:#2E4FA2"/>
		</linearGradient>
		<polygon class="st8" points="101.2,50.1 91.6,50.1 96.6,58.2 		"/>
	</g>
	<linearGradient id="SVGID_9_" gradientUnits="userSpaceOnUse" x1="85.4277" y1="43.8053" x2="135.4106" y2="43.8053">
		<stop  offset="0" style="stop-color:#2FB45C"/>
		<stop  offset="1" style="stop-color:#2E4FA2"/>
	</linearGradient>
	<polygon class="st9" points="85.4,37.2 91.3,37.2 100.7,22.2 113.1,43.7 100.7,63.7 107.3,63.7 116.8,48.5 132.3,76.2 135.4,70.4 
		100.3,11.4 	"/>
</g>
</svg>
